<svg width="61" height="61" viewBox="0 0 61 61" fill="none" xmlns="http://www.w3.org/2000/svg">
<path d="M61 47.2655C58.7811 47.8298 57.4086 47.2903 56.1772 45.4412L47.4199 33.3251L46.1541 31.6476L35.9271 45.4813C34.7586 47.1454 33.5328 47.8698 31.3521 47.2808L44.448 29.7013L32.2557 13.8223C34.3525 13.4143 35.8013 13.6221 37.088 15.4998L46.1713 27.7665L55.3213 15.5665C56.4936 13.9023 57.7537 13.2695 59.8582 13.8833L55.1307 20.151L48.7257 28.4909C47.9632 29.444 48.068 30.0959 48.7695 31.0166L61 47.2655ZM0.01525 29.4078L1.08656 24.1389C4.00312 13.7117 15.9553 9.3788 24.1979 15.8219C29.015 19.6116 30.2122 24.9719 29.9739 30.9766H2.82125C2.41331 41.7851 10.1927 48.3082 20.1109 44.9799C23.5898 43.8114 25.6391 41.0874 26.6646 37.679C27.185 35.971 28.0467 35.7041 29.6517 36.1921C28.832 40.4545 26.983 44.0154 23.0752 46.2438C17.2363 49.5797 8.90219 48.5008 4.51781 43.8648C1.90625 41.1751 0.827313 37.7667 0.343125 34.1219C0.266875 33.5196 0.114375 32.9458 0 32.3682C0.0101667 31.382 0.01525 30.3958 0.01525 29.4097V29.4078ZM2.87081 28.6834H27.4081C27.2479 20.8678 22.3813 15.3168 15.7304 15.2691C8.42944 15.2119 3.18725 20.6314 2.87081 28.6834Z" fill="white"/>
</svg>
