<svg width="62" height="75" viewBox="0 0 62 75" fill="none" xmlns="http://www.w3.org/2000/svg">
<g clip-path="url(#clip0_10_710)">
<path d="M61.5912 56.98L35.8438 2.35845C35.192 0.988965 33.8411 0.0866743 32.3252 0.00830921C30.8058 -0.0933883 29.3559 0.657491 28.5633 1.95647L0.637381 47.14C-0.229567 48.5329 -0.211327 50.3011 0.68417 51.6758L14.3374 72.7971C15.3982 74.4254 17.4049 75.1626 19.269 74.6088L58.8905 62.9011C60.0975 62.5486 61.0923 61.6906 61.6174 60.5491C62.1354 59.4131 62.1265 58.1069 61.5931 56.9781L61.5912 56.98ZM55.8267 59.3226L22.2055 69.2541C21.1799 69.5589 20.1955 68.6708 20.4088 67.6369L32.4207 10.181C32.6453 9.10597 34.1313 8.93584 34.6011 9.93048L56.8374 57.1015C57.0364 57.5269 57.0388 58.018 56.844 58.4453C56.6492 58.8727 56.2767 59.1933 55.8249 59.3226H55.8267Z" fill="white"/>
</g>
<defs>
<clipPath id="clip0_10_710">
<rect width="62" height="75" fill="white"/>
</clipPath>
</defs>
</svg>
